<?xml version="1.0" standalone="yes"?>
<svg xmlns="http://www.w3.org/2000/svg" width="339" height="251">
<path style="fill:#010101; stroke:none;" d="M0 0L0 251L339 251L339 0L0 0z"/>
<path style="fill:#feb2ae; stroke:none;" d="M130 39L131 40L130 39z"/>
<path style="fill:#fd554b; stroke:none;" d="M130 40L130 59L85 59C81.2138 59 71.657 57.2837 69.0278 60.6034C67.0883 63.0522 68 68.0897 68 71L68 97L68 192C68 199.348 64.4335 219.596 69.0278 225.397C71.0248 227.918 76.197 227 79 227L105 227C108.037 227 113.746 228.036 115.397 224.682C120.039 215.247 116 194.546 116 184L116 141L139 141L139 203L140.028 225.397L150 227L176 227L284 227L284 179L214 179L214 141L265 141L265 116L267.318 107.028L284 106L284 59L167 59L166 74C155.485 63.4845 143.504 46.2972 130 40z"/>
<path style="fill:#feb2ae; stroke:none;" d="M132 40L133 41L132 40M133 41L134 42L133 41M134 42L135 43L134 42M129 43L129 48L130 48L129 43M135 43L136 44L135 43M136 44L137 45L136 44M137 45L138 46L137 45M138 46L139 47L138 46M139 47L140 48L139 47M140 48L141 49L140 48M141 49L142 50L141 49M142 50L143 51L142 50M143 51L144 52L143 51M144 52L145 53L144 52M145 53L146 54L145 53M146 54L147 55L146 54M147 55L148 56L147 55M148 56L149 57L148 56M149 57L150 58L149 57M129 58L130 59L129 58M150 58L151 59L150 58M68 59L69 60L68 59M151 59L152 60L151 59M166 59L166 73L167 73L166 59M152 60L153 61L152 60M284 60L284 84L285 84L284 60M153 61L154 62L153 61M154 62L155 63L154 62M155 63L156 64L155 63M156 64L157 65L156 64M157 65L158 66L157 65M158 66L159 67L158 66M159 67L160 68L159 67M160 68L161 69L160 68M161 69L162 70L161 69M162 70L163 71L162 70M163 71L164 72L163 71z"/>
<path style="fill:#a64f4a; stroke:none;" d="M82 212L83 212L83 74L124 74C129.708 74 137.591 72.6093 143 74.6034C150.745 77.459 167.541 94.255 170.397 102C173.808 111.252 171 126.159 171 136L171 212C174.105 204.6 172 193.007 172 185L172 125C172 117.123 174.608 103.574 169.682 97C164.448 90.0145 153.262 76.6495 145 73.6034C134.728 69.816 117.94 73 107 73C102.044 73 86.3206 70.4459 83.0278 74.6034C81.0883 77.0522 82 82.0897 82 85L82 111L82 212z"/>
<path style="fill:#feb2ae; stroke:none;" d="M165 73L166 74L165 73z"/>
<path style="fill:#a64f4a; stroke:none;" d="M180 212L181 212L181 74L270 74L249 73L202 73L181.028 74.6034L180 85L180 111L180 212z"/>
<path style="fill:#4f4d4d; stroke:none;" d="M83 74L83 212L101 212L101 126L154 126L154 212L171 212L171 135C171 125.159 173.808 110.252 170.397 101C167.524 93.2097 152.396 78.726 145 75.0278C139.897 72.4764 131.579 74 126 74L83 74M181 74L181 212L270 212L268.397 195.028L250 194L199 194L199 126L250 126L250 108L199 108C199.528 97.8385 206.505 92.7922 216 91.4282C233.392 88.93 252.43 91 270 91L270 74L181 74z"/>
<path style="fill:#feb2ae; stroke:none;" d="M284 88L285 89L284 88z"/>
<path style="fill:#a64f4a; stroke:none;" d="M101 108L153 108C149.157 102.544 143.058 95.057 137 92.0278C123.85 85.4526 101.377 91.9787 101 108M215 91L215 92L270 92L252 91L215 91z"/>
<path style="fill:#fd554b; stroke:none;" d="M102 107L151 107C147.565 102.123 142.428 95.742 137 93.0278C125.043 87.0491 102.775 92.0893 102 107z"/>
<path style="fill:#a64f4a; stroke:none;" d="M209 92L209 93L214 93L209 92z"/>
<path style="fill:#feb2ae; stroke:none;" d="M284 92L284 106L285 106L284 92z"/>
<path style="fill:#a64f4a; stroke:none;" d="M206 93L206 94L209 94L206 93M205 94L206 95L205 94M204 95L205 96L204 95M203 96L204 97L203 96M202 97L203 98L202 97M201.333 98.6667L201.667 99.3333L201.333 98.6667M200.333 100.667L200.667 101.333L200.333 100.667M199 102L199 108L200 108L199 102z"/>
<path style="fill:#feb2ae; stroke:none;" d="M266 106L266 107L277 107L266 106M278 106L278 107L284 107L278 106M265 107L266 108L265 107z"/>
<path style="fill:#a64f4a; stroke:none;" d="M250 108L250 126L251 126L250 108M101 126L101 212L102 212L102 156L103 126L101 126M152 126L153 156L153 212L154 212L154 148C154 142.473 156.344 129.796 152 126M199 126L199 194L269 194L269 193L200 193L200 127L250 127C236.873 121.492 213.311 126 199 126z"/>
<path style="fill:#feb2ae; stroke:none;" d="M138 141L139 142L138 141M214 141L215 142L214 141M138 158L138 210L139 210L139 175L138 158M284 180L284 225L285 225C285 212.258 288.91 191.701 284 180z"/>
<path style="fill:#a64f4a; stroke:none;" d="M269 194L270 195L269 194z"/>
<path style="fill:#feb2ae; stroke:none;" d="M68 226L69 227L68 226M115 226L116 227L115 226M139 226L140 227L139 226z"/>
</svg>
